<svg width="65" height="24" viewBox="0 0 65 24" fill="none" xmlns="http://www.w3.org/2000/svg">
<path d="M23 12L18.39 19H16L20 13H8C7.48519 12.9894 6.97333 13.0803 6.49367 13.2676C6.014 13.4548 5.57593 13.7347 5.20448 14.0913C4.83302 14.4479 4.53546 14.8742 4.32879 15.3458C4.12212 15.8175 4.0104 16.3252 4 16.84V17C3.99772 17.4208 4.06184 17.8392 4.19 18.24L5.12 21H3L2.27 18.78C2.09089 18.1831 1.99993 17.5632 2 16.94C2.01581 15.3591 2.65492 13.8484 3.77843 12.7361C4.90194 11.6238 6.41904 10.9999 8 11H20L16 5H18.39L23 12Z" fill="#666666" fill-opacity="0.6"/>
<path d="M35.6104 9.24512C35.6104 9.68717 35.5374 10.0859 35.3916 10.4414C35.2458 10.7969 35.0361 11.0999 34.7627 11.3506C34.4938 11.6012 34.1611 11.7949 33.7646 11.9316C33.3727 12.0684 32.9033 12.1367 32.3564 12.1367H31.3516V15.3223C31.3516 15.3587 31.3402 15.3906 31.3174 15.418C31.2992 15.4453 31.2673 15.4681 31.2217 15.4863C31.1807 15.5 31.1214 15.5114 31.0439 15.5205C30.971 15.5342 30.8776 15.541 30.7637 15.541C30.6497 15.541 30.554 15.5342 30.4766 15.5205C30.4036 15.5114 30.3444 15.5 30.2988 15.4863C30.2533 15.4681 30.2214 15.4453 30.2031 15.418C30.1849 15.3906 30.1758 15.3587 30.1758 15.3223V7.16016C30.1758 6.97786 30.2236 6.84798 30.3193 6.77051C30.415 6.69303 30.5221 6.6543 30.6406 6.6543H32.5342C32.7256 6.6543 32.9079 6.66341 33.0811 6.68164C33.2588 6.69531 33.4661 6.72949 33.7031 6.78418C33.9447 6.83431 34.1885 6.93229 34.4346 7.07812C34.6852 7.2194 34.8971 7.39486 35.0703 7.60449C35.2435 7.81413 35.3757 8.05794 35.4668 8.33594C35.5625 8.60938 35.6104 8.91243 35.6104 9.24512ZM34.373 9.34082C34.373 8.98079 34.3047 8.68001 34.168 8.43848C34.0358 8.19694 33.8695 8.01693 33.6689 7.89844C33.473 7.77995 33.2679 7.70475 33.0537 7.67285C32.8441 7.64095 32.639 7.625 32.4385 7.625H31.3516V11.1729H32.4111C32.7666 11.1729 33.0605 11.1273 33.293 11.0361C33.5299 10.945 33.7282 10.8197 33.8877 10.6602C34.0472 10.4961 34.168 10.3024 34.25 10.0791C34.332 9.85124 34.373 9.60514 34.373 9.34082ZM41.6123 15.3359C41.6123 15.3906 41.5941 15.4316 41.5576 15.459C41.5212 15.4863 41.471 15.5068 41.4072 15.5205C41.3434 15.5342 41.25 15.541 41.127 15.541C41.0085 15.541 40.9128 15.5342 40.8398 15.5205C40.7715 15.5068 40.7214 15.4863 40.6895 15.459C40.6576 15.4316 40.6416 15.3906 40.6416 15.3359V14.7207C40.3727 15.0078 40.0719 15.2311 39.7393 15.3906C39.4111 15.5501 39.0625 15.6299 38.6934 15.6299C38.3698 15.6299 38.0758 15.5866 37.8115 15.5C37.5518 15.418 37.3285 15.2972 37.1416 15.1377C36.9593 14.9782 36.8158 14.7822 36.7109 14.5498C36.6107 14.3174 36.5605 14.0531 36.5605 13.7568C36.5605 13.4105 36.6312 13.1097 36.7725 12.8545C36.9137 12.5993 37.1165 12.3874 37.3809 12.2188C37.6452 12.0501 37.9688 11.9248 38.3516 11.8428C38.7344 11.7562 39.165 11.7129 39.6436 11.7129H40.4912V11.2344C40.4912 10.9974 40.4661 10.7878 40.416 10.6055C40.3659 10.4232 40.2839 10.2728 40.1699 10.1543C40.0605 10.0312 39.917 9.9401 39.7393 9.88086C39.5615 9.81706 39.3428 9.78516 39.083 9.78516C38.805 9.78516 38.5544 9.81934 38.3311 9.8877C38.1123 9.9515 37.9186 10.0244 37.75 10.1064C37.5859 10.1839 37.4469 10.2568 37.333 10.3252C37.2236 10.389 37.1416 10.4209 37.0869 10.4209C37.0505 10.4209 37.0186 10.4118 36.9912 10.3936C36.9639 10.3753 36.9388 10.348 36.916 10.3115C36.8978 10.2751 36.8841 10.2295 36.875 10.1748C36.8659 10.1156 36.8613 10.0518 36.8613 9.9834C36.8613 9.86947 36.8682 9.7806 36.8818 9.7168C36.9001 9.64844 36.9388 9.58464 36.998 9.52539C37.0618 9.46615 37.1689 9.39779 37.3193 9.32031C37.4697 9.23828 37.6429 9.16536 37.8389 9.10156C38.0348 9.0332 38.249 8.97852 38.4814 8.9375C38.7139 8.89193 38.9486 8.86914 39.1855 8.86914C39.6276 8.86914 40.0036 8.91927 40.3135 9.01953C40.6234 9.11979 40.874 9.2679 41.0654 9.46387C41.2568 9.65527 41.3958 9.89453 41.4824 10.1816C41.569 10.4688 41.6123 10.8037 41.6123 11.1865V15.3359ZM40.4912 12.5264H39.5273C39.2174 12.5264 38.9486 12.5537 38.7207 12.6084C38.4928 12.6585 38.3037 12.736 38.1533 12.8408C38.0029 12.9411 37.8913 13.0641 37.8184 13.21C37.75 13.3512 37.7158 13.5153 37.7158 13.7021C37.7158 14.0212 37.8161 14.2764 38.0166 14.4678C38.2217 14.6546 38.5065 14.748 38.8711 14.748C39.1673 14.748 39.4408 14.6729 39.6914 14.5225C39.9466 14.3721 40.2132 14.1419 40.4912 13.832V12.5264ZM46.2334 15.5L45.4131 17.7627C45.3857 17.8356 45.3151 17.8903 45.2012 17.9268C45.0918 17.9678 44.9232 17.9883 44.6953 17.9883C44.5768 17.9883 44.4811 17.9814 44.4082 17.9678C44.3353 17.9587 44.2783 17.9404 44.2373 17.9131C44.2008 17.8857 44.1803 17.8493 44.1758 17.8037C44.1712 17.7581 44.1826 17.7035 44.21 17.6396L45.0576 15.5C45.0166 15.4818 44.9779 15.4521 44.9414 15.4111C44.9049 15.3701 44.8799 15.3268 44.8662 15.2812L42.6719 9.40234C42.6354 9.30664 42.6172 9.23145 42.6172 9.17676C42.6172 9.12207 42.6354 9.07878 42.6719 9.04688C42.7083 9.01497 42.7676 8.99447 42.8496 8.98535C42.9316 8.97168 43.041 8.96484 43.1777 8.96484C43.3145 8.96484 43.4215 8.9694 43.499 8.97852C43.5765 8.98307 43.638 8.99447 43.6836 9.0127C43.7292 9.03092 43.7611 9.05827 43.7793 9.09473C43.8021 9.12663 43.8249 9.1722 43.8477 9.23145L45.6045 14.167H45.625L47.3203 9.2041C47.3477 9.11751 47.3796 9.06283 47.416 9.04004C47.457 9.0127 47.5163 8.99447 47.5938 8.98535C47.6712 8.97168 47.7829 8.96484 47.9287 8.96484C48.0563 8.96484 48.1611 8.97168 48.2432 8.98535C48.3252 8.99447 48.3844 9.01497 48.4209 9.04688C48.4619 9.07878 48.4824 9.12207 48.4824 9.17676C48.4824 9.23145 48.4688 9.2998 48.4414 9.38184L46.2334 15.5ZM50.9023 15.3291C50.9023 15.3656 50.8932 15.3975 50.875 15.4248C50.8568 15.4476 50.8271 15.4681 50.7861 15.4863C50.7451 15.5046 50.6882 15.5182 50.6152 15.5273C50.5423 15.5365 50.4489 15.541 50.335 15.541C50.2256 15.541 50.1344 15.5365 50.0615 15.5273C49.9886 15.5182 49.9294 15.5046 49.8838 15.4863C49.8428 15.4681 49.8132 15.4476 49.7949 15.4248C49.7812 15.3975 49.7744 15.3656 49.7744 15.3291V6.19629C49.7744 6.15983 49.7812 6.12793 49.7949 6.10059C49.8132 6.07324 49.8428 6.05046 49.8838 6.03223C49.9294 6.014 49.9886 6.00033 50.0615 5.99121C50.1344 5.9821 50.2256 5.97754 50.335 5.97754C50.4489 5.97754 50.5423 5.9821 50.6152 5.99121C50.6882 6.00033 50.7451 6.014 50.7861 6.03223C50.8271 6.05046 50.8568 6.07324 50.875 6.10059C50.8932 6.12793 50.9023 6.15983 50.9023 6.19629V15.3291ZM57.6221 15.3359C57.6221 15.3906 57.6038 15.4316 57.5674 15.459C57.5309 15.4863 57.4808 15.5068 57.417 15.5205C57.3532 15.5342 57.2598 15.541 57.1367 15.541C57.0182 15.541 56.9225 15.5342 56.8496 15.5205C56.7812 15.5068 56.7311 15.4863 56.6992 15.459C56.6673 15.4316 56.6514 15.3906 56.6514 15.3359V14.7207C56.3825 15.0078 56.0817 15.2311 55.749 15.3906C55.4209 15.5501 55.0723 15.6299 54.7031 15.6299C54.3796 15.6299 54.0856 15.5866 53.8213 15.5C53.5615 15.418 53.3382 15.2972 53.1514 15.1377C52.9691 14.9782 52.8255 14.7822 52.7207 14.5498C52.6204 14.3174 52.5703 14.0531 52.5703 13.7568C52.5703 13.4105 52.641 13.1097 52.7822 12.8545C52.9235 12.5993 53.1263 12.3874 53.3906 12.2188C53.6549 12.0501 53.9785 11.9248 54.3613 11.8428C54.7441 11.7562 55.1748 11.7129 55.6533 11.7129H56.501V11.2344C56.501 10.9974 56.4759 10.7878 56.4258 10.6055C56.3757 10.4232 56.2936 10.2728 56.1797 10.1543C56.0703 10.0312 55.9268 9.9401 55.749 9.88086C55.5713 9.81706 55.3525 9.78516 55.0928 9.78516C54.8148 9.78516 54.5641 9.81934 54.3408 9.8877C54.1221 9.9515 53.9284 10.0244 53.7598 10.1064C53.5957 10.1839 53.4567 10.2568 53.3428 10.3252C53.2334 10.389 53.1514 10.4209 53.0967 10.4209C53.0602 10.4209 53.0283 10.4118 53.001 10.3936C52.9736 10.3753 52.9486 10.348 52.9258 10.3115C52.9076 10.2751 52.8939 10.2295 52.8848 10.1748C52.8757 10.1156 52.8711 10.0518 52.8711 9.9834C52.8711 9.86947 52.8779 9.7806 52.8916 9.7168C52.9098 9.64844 52.9486 9.58464 53.0078 9.52539C53.0716 9.46615 53.1787 9.39779 53.3291 9.32031C53.4795 9.23828 53.6527 9.16536 53.8486 9.10156C54.0446 9.0332 54.2588 8.97852 54.4912 8.9375C54.7236 8.89193 54.9583 8.86914 55.1953 8.86914C55.6374 8.86914 56.0133 8.91927 56.3232 9.01953C56.6331 9.11979 56.8838 9.2679 57.0752 9.46387C57.2666 9.65527 57.4056 9.89453 57.4922 10.1816C57.5788 10.4688 57.6221 10.8037 57.6221 11.1865V15.3359ZM56.501 12.5264H55.5371C55.2272 12.5264 54.9583 12.5537 54.7305 12.6084C54.5026 12.6585 54.3135 12.736 54.1631 12.8408C54.0127 12.9411 53.901 13.0641 53.8281 13.21C53.7598 13.3512 53.7256 13.5153 53.7256 13.7021C53.7256 14.0212 53.8258 14.2764 54.0264 14.4678C54.2314 14.6546 54.5163 14.748 54.8809 14.748C55.1771 14.748 55.4505 14.6729 55.7012 14.5225C55.9564 14.3721 56.223 14.1419 56.501 13.832V12.5264ZM61.9629 15.541L62.1748 16.0059C62.2705 16.2109 62.3389 16.3796 62.3799 16.5117C62.4255 16.6484 62.4482 16.776 62.4482 16.8945C62.4482 17.0677 62.4163 17.2227 62.3525 17.3594C62.2887 17.4961 62.1976 17.61 62.0791 17.7012C61.9606 17.7969 61.8193 17.8698 61.6553 17.9199C61.4912 17.9701 61.3089 17.9951 61.1084 17.9951C60.9489 17.9951 60.7962 17.9837 60.6504 17.9609C60.5091 17.9427 60.3861 17.9222 60.2812 17.8994C60.181 17.8766 60.1104 17.8561 60.0693 17.8379C60.0329 17.8197 60.0055 17.7969 59.9873 17.7695C59.9736 17.7422 59.9622 17.708 59.9531 17.667C59.9486 17.626 59.9463 17.5713 59.9463 17.5029C59.9463 17.3617 59.96 17.266 59.9873 17.2158C60.0192 17.1702 60.0693 17.1475 60.1377 17.1475H60.9854C61.1312 17.1475 61.2451 17.1156 61.3271 17.0518C61.4092 16.9925 61.4502 16.9014 61.4502 16.7783C61.4502 16.7191 61.4365 16.6439 61.4092 16.5527C61.3818 16.4661 61.3454 16.3727 61.2998 16.2725L61.0127 15.623C60.7165 15.6139 60.4544 15.5775 60.2266 15.5137C59.9987 15.4544 59.8096 15.3906 59.6592 15.3223C59.5133 15.2493 59.4131 15.1878 59.3584 15.1377C59.3037 15.0876 59.265 15.0215 59.2422 14.9395C59.2194 14.8574 59.208 14.7458 59.208 14.6045C59.208 14.5179 59.2126 14.445 59.2217 14.3857C59.2308 14.3265 59.2422 14.2786 59.2559 14.2422C59.2695 14.2057 59.2878 14.1807 59.3105 14.167C59.3379 14.1488 59.3675 14.1396 59.3994 14.1396C59.4495 14.1396 59.5225 14.1715 59.6182 14.2354C59.7184 14.2946 59.8392 14.3607 59.9805 14.4336C60.1263 14.5065 60.2972 14.5749 60.4932 14.6387C60.6891 14.6979 60.9147 14.7275 61.1699 14.7275C61.3613 14.7275 61.5345 14.707 61.6895 14.666C61.8444 14.625 61.9788 14.5658 62.0928 14.4883C62.2067 14.4062 62.2933 14.3037 62.3525 14.1807C62.4163 14.0576 62.4482 13.9118 62.4482 13.7432C62.4482 13.57 62.4027 13.4242 62.3115 13.3057C62.2249 13.1872 62.1087 13.0824 61.9629 12.9912C61.8171 12.9001 61.653 12.8203 61.4707 12.752C61.2884 12.679 61.0993 12.6038 60.9033 12.5264C60.7119 12.4489 60.5228 12.3623 60.3359 12.2666C60.1536 12.1663 59.9896 12.0456 59.8438 11.9043C59.6979 11.763 59.5794 11.5944 59.4883 11.3984C59.4017 11.2025 59.3584 10.9678 59.3584 10.6943C59.3584 10.4528 59.404 10.2227 59.4951 10.0039C59.5908 9.7806 59.7321 9.58691 59.9189 9.42285C60.1058 9.25423 60.3382 9.11979 60.6162 9.01953C60.8988 8.91927 61.2269 8.86914 61.6006 8.86914C61.7646 8.86914 61.9287 8.88281 62.0928 8.91016C62.2568 8.9375 62.4049 8.97168 62.5371 9.0127C62.6693 9.05371 62.7809 9.09928 62.8721 9.14941C62.9678 9.19499 63.0384 9.236 63.084 9.27246C63.1341 9.30892 63.166 9.34082 63.1797 9.36816C63.1979 9.39551 63.2093 9.42741 63.2139 9.46387C63.223 9.49577 63.2298 9.53678 63.2344 9.58691C63.2435 9.63704 63.248 9.69857 63.248 9.77148C63.248 9.84896 63.2435 9.91732 63.2344 9.97656C63.2298 10.0312 63.2184 10.0768 63.2002 10.1133C63.1865 10.1497 63.1683 10.1771 63.1455 10.1953C63.1227 10.209 63.0977 10.2158 63.0703 10.2158C63.0293 10.2158 62.9701 10.1908 62.8926 10.1406C62.8151 10.0905 62.7148 10.0381 62.5918 9.9834C62.4688 9.92415 62.3229 9.86947 62.1543 9.81934C61.9902 9.76921 61.8011 9.74414 61.5869 9.74414C61.3955 9.74414 61.2269 9.76693 61.0811 9.8125C60.9352 9.85352 60.8145 9.91504 60.7188 9.99707C60.6276 10.0745 60.557 10.168 60.5068 10.2773C60.4613 10.3867 60.4385 10.5052 60.4385 10.6328C60.4385 10.8105 60.484 10.9609 60.5752 11.084C60.6663 11.2025 60.7848 11.3073 60.9307 11.3984C61.0765 11.4896 61.2428 11.5716 61.4297 11.6445C61.6165 11.7174 61.8057 11.7926 61.9971 11.8701C62.193 11.9476 62.3844 12.0342 62.5713 12.1299C62.7627 12.2256 62.9313 12.3418 63.0771 12.4785C63.223 12.6152 63.3392 12.7793 63.4258 12.9707C63.5169 13.1621 63.5625 13.39 63.5625 13.6543C63.5625 13.9596 63.5033 14.2376 63.3848 14.4883C63.2708 14.7389 63.0954 14.9554 62.8584 15.1377C62.626 15.32 62.3275 15.4544 61.9629 15.541Z" fill="#666666" fill-opacity="0.6"/>
</svg>
